<?xml version="1.0" encoding="UTF-8" standalone="no"?>
<svg
   xmlns:svg="http://www.w3.org/2000/svg"
   xmlns="http://www.w3.org/2000/svg"
   version="1.0"
   width="500.34357"
   height="500.34357"
   id="svg1890">
  <defs
     id="defs1893" />
  <path
     d="m 496.8946,242.33616 c 4.33196,4.33195 4.33196,11.33928 0,15.67124 L 258.00741,496.89459 c -4.33196,4.33196 -11.33929,4.33196 -15.67125,0 L 3.448976,258.0074 c -4.33196815,-4.33197 -4.33196515,-11.33928 -8e-6,-15.67124 L 242.33617,3.4489584 c 4.33195,-4.3319492 11.33929,-4.3319432 15.67125,1e-5 z"
     id="path5216"
     style="fill:#fcdc0f;fill-opacity:1;fill-rule:nonzero;stroke:none" />
  <path
     d="M 250.17179,12.231763 12.231779,250.17177 250.17179,488.1118 488.11181,250.17178 z m 16.73435,30.875126 190.33054,190.330551 c 9.25965,9.25963 9.25965,24.20902 1e-5,33.46868 L 266.90615,457.23668 c -9.25965,9.25963 -24.20908,9.25963 -33.46871,0 L 43.106879,266.90612 c -9.25963,-9.25964 -9.25964,-24.20905 0,-33.46869 L 233.43744,43.106869 c 9.25965,-9.259653 24.20905,-9.25963 33.4687,2e-5 z"
     id="path17826"
     style="fill:#000000;fill-opacity:1;fill-rule:nonzero;stroke:none" />
  <g
     transform="translate(601.15884,-6.418665)"
     id="g3703">
    <g
       id="g3662">
      <path
         d="m -282.80221,178.64185 c 3.49371,-2.70151 6.85697,-4.04855 7.38239,-8.2342 -14.54447,0.84091 -24.35951,-4.91365 -31.80105,-4.82694 -16.81837,-0.74992 -30.19977,5.90564 -40.3192,17.60416 -17.74627,25.27054 -39.75883,26.95155 -57.35547,37.76374 -9.04031,5.39158 -12.21584,13.4267 -17.46218,22.71503 -7.26659,18.09021 -2.8134,28.06502 5.25285,47.70159 1.66464,5.18055 0.44758,9.92015 -1.27772,20.86944 -0.10395,3.47997 -3.77288,9.53114 -6.7157,16.7018 -4.52274,11.98797 11.12218,17.69468 19.97455,20.9407 l 4.20333,-0.0207 c 1.89593,0.0203 7.48318,-4.11544 4.25907,-7.52435 l -6.10466,-5.39482 c -3.36012,-3.00505 -3.95363,-6.36091 -1.13576,-7.09845 7.03413,-1.50101 14.01158,-3.11537 20.30157,-6.10466 2.90853,-1.52256 5.81706,-4.22831 8.72559,-6.42285 l 4.90343,-0.10777 c 5.20268,4.22319 11.25021,11.45552 15.75857,11.64146 l 18.17202,0.14197 c 2.85165,0.3586 4.24084,-6.49345 1.56166,-7.52435 l -7.52436,-2.41348 -0.56787,-6.95647 c 2.35476,-0.97493 2.09601,-5.71525 1.27772,-12.77721 -0.44914,-4.12915 -1.44645,-7.98421 -3.40726,-11.35752 7.49946,-2.23333 13.99921,-4.09726 16.46841,-10e-6 6.05401,14.0852 4.76022,20.31173 3.40725,28.3938 l -4.54301,7.95027 c -1.63685,2.23532 -2.03163,5.77741 1.70363,8.2342 5.21201,2.57164 8.24746,0.62468 12.20933,-0.85181 4.47036,-1.49234 7.80269,-6.25224 8.66011,-10.0798 1.52797,-9.64708 2.74337,-18.52764 1.27772,-29.67152 7.23864,-2.07865 22.53131,8.41236 22.43109,12.49327 -0.83984,10.91042 -1.01904,24.51447 4.25908,24.56063 2.95364,-0.075 4.55966,-3.76918 7.24042,-7.38239 2.00116,-2.97107 4.00836,-7.39354 4.543,-12.20933 0.26926,-3.74242 0.32924,-4.16059 -0.28394,-10.22177 -1.38686,-14.06796 -16.44255,-31.95173 -20.86943,-32.22695 0.90079,-14.95517 -5.71569,-26.03458 -11.35753,-36.62799 2.64368,-3.26635 3.76867,-9.21509 2.35339,-13.24015 -4.01418,-9.0594 -5.96375,-19.57131 -5.19276,-24.23966 0.55568,-4.71418 7.32914,-12.6584 10.07978,-14.05494 3.84762,-2.16896 7.67058,-2.32807 9.51193,-0.14197 l 0,-1e-5 0,4e-5 0,-3e-5 10e-6,0 z"
         id="path2839"
         style="fill:#000000;fill-opacity:1;stroke:#000000;stroke-width:1px;stroke-linecap:butt;stroke-linejoin:round;stroke-opacity:1" />
      <path
         d="m -289.97165,192.98073 a 3.1943021,3.1943021 0 1 1 -6.38861,0 3.1943021,3.1943021 0 1 1 6.38861,0 z"
         transform="translate(0.92279838,0.42590695)"
         id="path3623"
         style="color:#000000;fill:#000000;fill-opacity:1;stroke:none;stroke-width:4;marker:none;visibility:visible;display:inline;overflow:visible;enable-background:accumulate" />
      <path
         d="m -296.28927,223.50407 c 6.48325,2.80347 12.39863,2.67009 18.59794,-0.70986 3.85687,-3.21498 5.39747,-7.29857 6.24663,-11.64145 0.56881,-9.96231 -6.26984,-14.44575 -11.28653,-20.23059 l 0.14197,-3.90415 c 3.95665,-1.54683 3.19009,-7.45338 -0.28393,-8.51814"
         id="path3625"
         style="fill:none;stroke:#000000;stroke-width:3;stroke-linecap:round;stroke-linejoin:round;stroke-miterlimit:4;stroke-opacity:1;stroke-dasharray:none" />
    </g>
    <path
       d="m -280.06322,311.85181 c 0.47323,-3.7316 5.58986,-3.40433 5.92112,1.09269 0.15093,3.48272 0.0849,6.50204 -0.85182,8.80209 -1.23066,3.27129 -4.70761,3.89038 -5.53679,-0.56788 -0.32327,-3.424 0.0215,-5.93631 0.46749,-9.3269 z"
       id="path3613"
       style="fill:#fcdc0f;fill-opacity:1;stroke:#fcdc0f;stroke-width:1px;stroke-linecap:butt;stroke-linejoin:miter;stroke-opacity:1" />
    <path
       d="m -317.27028,314.90904 c 1.35224,-1.3226 3.78092,-0.64332 4.9362,1.34871 0.92441,2.45255 0.11533,4.40822 -0.66321,6.86077 -1.61699,3.88378 -3.82051,5.76735 -6.94185,7.10819 -2.45643,0.83594 -5.93725,0.65338 -6.1652,-0.97952 -0.28009,-1.75628 0.10161,-2.94469 0.95723,-4.70098 2.59558,-3.7879 4.37761,-6.29477 7.87683,-9.63717 z"
       id="path3615"
       style="fill:#fcdc0f;fill-opacity:1;stroke:#fcdc0f;stroke-width:1px;stroke-linecap:butt;stroke-linejoin:miter;stroke-opacity:1" />
    <path
       d="m -359.96235,284.12481 -0.21296,-7.45338 c 9.6546,-2.66243 21.2171,-6.52549 26.5482,-10.64767 3.42401,3.21532 7.21951,7.87084 10.0798,9.5829 -11.43524,5.55136 -25.21748,8.14456 -36.41504,8.51815 z"
       id="path3617"
       style="fill:#fcdc0f;fill-opacity:1;stroke:#fcdc0f;stroke-width:1px;stroke-linecap:butt;stroke-linejoin:round;stroke-opacity:1" />
    <path
       d="m -321.34679,181.1973 c 1.34269,-6.01711 8.27753,-2.89726 9.79586,1.98755 0.90222,2.98136 0.69481,8.80209 -0.28393,12.06737 -1.04303,2.40621 -4.42278,1.8292 -7.16944,-1.56166 -2.81146,-4.60538 -3.1745,-7.62769 -2.34249,-12.49326 z"
       id="path3619"
       style="fill:#fcdc0f;fill-opacity:1;fill-rule:evenodd;stroke:#fcdc0f;stroke-width:1px;stroke-linecap:butt;stroke-linejoin:miter;stroke-opacity:1" />
  </g>
</svg>
